<svg xmlns="http://www.w3.org/2000/svg" viewBox="0 0 800 1200" width="800" height="1200">
  <defs>
    <radialGradient id="r-glow" cx=".7" cy=".35" r=".6"><stop offset="0" stop-color="#3a2618"/><stop offset="1" stop-color="#1a120d"/></radialGradient>
    <radialGradient id="r-plate" cx=".45" cy=".4" r=".6"><stop offset="0" stop-color="#ffffff"/><stop offset="1" stop-color="#e9e2d8"/></radialGradient>
  </defs>
  <rect width="800" height="1200" fill="#1a120d"/>
  <rect width="800" height="540" fill="url(#r-glow)"/>
  <!-- nav -->
  <text x="48" y="50" font-family="Georgia, serif" font-size="24" font-style="italic" fill="#f3e9da">Olive <tspan fill="#d4a24c">&amp;</tspan> Thyme</text>
  <g font-family="Arial, sans-serif" font-size="13" fill="#bfae98" letter-spacing="1"><text x="430" y="48">MENU</text><text x="500" y="48">ABOUT</text><text x="572" y="48">EVENTS</text></g>
  <rect x="646" y="28" width="108" height="32" rx="16" fill="none" stroke="#d4a24c" stroke-width="1.5"/>
  <text x="700" y="49" font-family="Arial, sans-serif" font-size="12" font-weight="700" fill="#d4a24c" text-anchor="middle" letter-spacing="1">RESERVE</text>
  <!-- hero -->
  <text x="48" y="170" font-family="Arial, sans-serif" font-size="13" fill="#d4a24c" letter-spacing="3">MEDITERRANEAN KITCHEN · EST. 2024</text>
  <text font-family="Georgia, serif" font-size="50" fill="#f6eee2"><tspan x="46" y="240">Taste the</tspan><tspan x="46" y="300" font-style="italic" fill="#e7b965">Mediterranean</tspan></text>
  <rect x="48" y="336" width="300" height="9" rx="4.5" fill="#6d5a47"/><rect x="48" y="356" width="250" height="9" rx="4.5" fill="#6d5a47"/>
  <rect x="48" y="396" width="160" height="50" rx="25" fill="#d4a24c"/>
  <text x="128" y="427" font-family="Arial, sans-serif" font-size="14" font-weight="700" fill="#1a120d" text-anchor="middle">Book a Table</text>
  <text x="236" y="427" font-family="Arial, sans-serif" font-size="14" fill="#f3e9da">View Menu →</text>
  <!-- plate -->
  <circle cx="590" cy="290" r="175" fill="#120c08" opacity=".55"/>
  <circle cx="580" cy="276" r="160" fill="url(#r-plate)"/>
  <circle cx="580" cy="276" r="118" fill="none" stroke="#d9cfc1" stroke-width="2"/>
  <ellipse cx="560" cy="270" rx="72" ry="58" fill="#e8b04a"/>
  <ellipse cx="548" cy="258" rx="40" ry="30" fill="#f2c96b"/>
  <circle cx="610" cy="240" r="20" fill="#c0392b"/><circle cx="606" cy="236" r="6" fill="#e05a4b"/>
  <circle cx="530" cy="300" r="16" fill="#c0392b"/><circle cx="590" cy="310" r="13" fill="#6b8e23"/>
  <circle cx="520" cy="250" r="9" fill="#2f2f2f"/><circle cx="625" cy="290" r="9" fill="#2f2f2f"/>
  <path d="M640 200 q30 -20 50 10 q-30 15 -50 -10z" fill="#6b8e23"/><path d="M652 198 q15 0 30 10" stroke="#4a6418" stroke-width="2" fill="none"/>
  <path d="M480 330 q-10 30 20 40 q5 -30 -20 -40z" fill="#7da13a"/>
  <!-- divider -->
  <rect x="0" y="540" width="800" height="1" fill="#3a2b20"/>
  <!-- menu -->
  <text x="400" y="612" font-family="Georgia, serif" font-size="34" fill="#f3e9da" text-anchor="middle">Our Menu</text>
  <rect x="370" y="628" width="60" height="2" fill="#d4a24c"/>
  <g font-family="Arial, sans-serif" font-size="12" fill="#d4a24c" letter-spacing="2" text-anchor="middle"><text x="200" y="672">STARTERS</text><text x="400" y="672" fill="#f3e9da">MAINS</text><text x="600" y="672">DESSERTS</text></g>
  <g font-family="Georgia, serif" fill="#f3e9da" font-size="17">
    <text x="64" y="724">Grilled Halloumi</text><text x="64" y="784">Lamb Tagine</text><text x="64" y="844">Seafood Paella</text>
    <text x="424" y="724">Mezze Platter</text><text x="424" y="784">Chicken Pastilla</text><text x="424" y="844">Baklava Trio</text>
  </g>
  <g font-family="Georgia, serif" fill="#e7b965" font-size="17" text-anchor="end">
    <text x="376" y="724">$12</text><text x="376" y="784">$26</text><text x="376" y="844">$32</text>
    <text x="736" y="724">$18</text><text x="736" y="784">$24</text><text x="736" y="844">$9</text>
  </g>
  <g fill="#6d5a47"><rect x="64" y="736" width="220" height="6" rx="3"/><rect x="64" y="796" width="200" height="6" rx="3"/><rect x="64" y="856" width="230" height="6" rx="3"/><rect x="424" y="736" width="210" height="6" rx="3"/><rect x="424" y="796" width="230" height="6" rx="3"/><rect x="424" y="856" width="190" height="6" rx="3"/></g>
  <!-- gallery -->
  <rect x="48" y="912" width="228" height="180" rx="14" fill="#2c1e15"/><circle cx="162" cy="1002" r="62" fill="#efe7db"/><ellipse cx="162" cy="1000" rx="38" ry="30" fill="#7da13a"/><circle cx="150" cy="990" r="10" fill="#c0392b"/><circle cx="178" cy="1010" r="8" fill="#f2c96b"/>
  <rect x="286" y="912" width="228" height="180" rx="14" fill="#4a2d1c"/><rect x="360" y="950" width="80" height="110" rx="8" fill="#8b1e2d"/><rect x="372" y="935" width="56" height="20" rx="4" fill="#3a1a12"/><circle cx="400" cy="1000" r="20" fill="#f3e9da" opacity=".25"/>
  <rect x="524" y="912" width="228" height="180" rx="14" fill="#2c1e15"/><circle cx="638" cy="1002" r="62" fill="#efe7db"/><path d="M600 1010 l38 -48 l38 48z" fill="#d48b3a"/><path d="M612 1010 l26 -32 l26 32z" fill="#f2c96b"/>
  <!-- footer bar -->
  <rect x="0" y="1124" width="800" height="76" fill="#120c08"/>
  <text x="48" y="1168" font-family="Arial, sans-serif" font-size="13" fill="#bfae98">Open daily · 12pm – 11pm</text>
  <text x="752" y="1168" font-family="Arial, sans-serif" font-size="13" fill="#d4a24c" text-anchor="end">Reserve a table →</text>
</svg>
